<svg xmlns="http://www.w3.org/2000/svg" viewBox="0 0 1080 1440" width="1080" height="1440">
  <defs>
    <linearGradient id="bg" x1="0" y1="0" x2="1" y2="1"><stop offset="0" stop-color="#070611"/><stop offset="0.55" stop-color="#120a25"/><stop offset="1" stop-color="#090713"/></linearGradient>
    <linearGradient id="flow" x1="0" y1="0" x2="1" y2="0"><stop offset="0" stop-color="#9d7930"/><stop offset="0.5" stop-color="#f2df91"/><stop offset="1" stop-color="#9d7930"/></linearGradient>
    <marker id="arrow" markerWidth="10" markerHeight="10" refX="5" refY="5" orient="auto"><path d="M0,0 L10,5 L0,10 Z" fill="#c9a84c"/></marker>
  </defs>
  <rect width="1080" height="1440" fill="url(#bg)"/>
  <text x="90" y="112" font-family="'PingFang SC', sans-serif" font-size="24" fill="#8f80a5" letter-spacing="5">02 / SUPPLY TO PROFIT</text>
  <text x="90" y="220" font-family="'PingFang SC', sans-serif" font-size="68" font-weight="700" fill="#f1df91">产业供需与盈利传导</text>
  <rect x="90" y="266" width="150" height="4" rx="2" fill="url(#flow)"/>
  <text x="90" y="325" font-family="'PingFang SC', sans-serif" font-size="27" fill="#a99abb">BD 交易引爆研发需求，CXO 承接订单，正向循环正在启动</text>

  <g font-family="'PingFang SC', sans-serif" text-anchor="middle">
    <!-- Step 1 -->
    <rect x="170" y="390" width="740" height="120" rx="28" fill="#1a112c" stroke="#8e7137"/>
    <text x="540" y="435" font-size="22" fill="#d8bc63" letter-spacing="3">需求点燃</text>
    <text x="540" y="480" font-size="34" font-weight="600" fill="#f5e8b0">BD 交易爆发 ＋ 国内投融资回暖</text>
    <line x1="540" y1="525" x2="540" y2="575" stroke="#c9a84c" stroke-width="3" marker-end="url(#arrow)"/>

    <!-- Step 2 -->
    <rect x="170" y="590" width="740" height="120" rx="28" fill="#1a112c" stroke="#8e7137"/>
    <text x="540" y="635" font-size="22" fill="#d8bc63" letter-spacing="3">研发传导</text>
    <text x="540" y="680" font-size="34" font-weight="600" fill="#f5e8b0">创新药企研发投入恢复增长</text>
    <line x1="540" y1="725" x2="540" y2="775" stroke="#c9a84c" stroke-width="3" marker-end="url(#arrow)"/>

    <!-- Step 3 -->
    <rect x="170" y="790" width="740" height="120" rx="28" fill="#1a112c" stroke="#8e7137"/>
    <text x="540" y="835" font-size="22" fill="#d8bc63" letter-spacing="3">订单承接</text>
    <text x="540" y="880" font-size="34" font-weight="600" fill="#f5e8b0">CXO 订单增长 → 产能利用率提升</text>
    <line x1="540" y1="925" x2="540" y2="975" stroke="#c9a84c" stroke-width="3" marker-end="url(#arrow)"/>

    <!-- Step 4 -->
    <rect x="170" y="990" width="740" height="120" rx="28" fill="#1a112c" stroke="#8e7137"/>
    <text x="540" y="1035" font-size="22" fill="#d8bc63" letter-spacing="3">盈利兑现</text>
    <text x="540" y="1080" font-size="34" font-weight="600" fill="#f5e8b0">创新药收入放量 ＋ CXO 毛利释放</text>
    <line x1="540" y1="1125" x2="540" y2="1155" stroke="#c9a84c" stroke-width="3" marker-end="url(#arrow)"/>

    <!-- Step 5: Positive cycle -->
    <rect x="170" y="1170" width="740" height="80" rx="28" fill="#d8bc63" fill-opacity="0.11" stroke="#d8bc63"/>
    <text x="540" y="1200" font-size="22" fill="#d8bc63" letter-spacing="3">正向循环</text>
    <text x="540" y="1230" font-size="28" font-weight="600" fill="#f5e8b0">更多资本 → 更多研发 → 更多 BD 交易</text>
  </g>

  <text x="90" y="1342" font-family="'PingFang SC', sans-serif" font-size="22" fill="#d8bc63" letter-spacing="3">当前验证节点</text>
  <g font-family="'PingFang SC', sans-serif" font-size="23">
    <rect x="90" y="1368" width="280" height="56" rx="16" fill="#2a1525" stroke="#8e4f58"/><text x="230" y="1400" text-anchor="middle" fill="#dfb4b9">融资持续性</text>
    <rect x="400" y="1368" width="280" height="56" rx="16" fill="#2a1525" stroke="#8e4f58"/><text x="540" y="1400" text-anchor="middle" fill="#dfb4b9">CXO 交付节奏</text>
    <rect x="710" y="1368" width="280" height="56" rx="16" fill="#2a1525" stroke="#8e4f58"/><text x="850" y="1400" text-anchor="middle" fill="#dfb4b9">新药上市放量</text>
  </g>
</svg>
