<svg xmlns="http://www.w3.org/2000/svg" viewBox="0 0 1080 1440" width="1080" height="1440">
  <defs>
    <linearGradient id="bg" x1="0" y1="0" x2="1" y2="1"><stop offset="0" stop-color="#070611"/><stop offset="0.55" stop-color="#120a25"/><stop offset="1" stop-color="#090713"/></linearGradient>
    <linearGradient id="gold" x1="0" y1="0" x2="1" y2="0"><stop offset="0" stop-color="#a47c2d"/><stop offset="0.5" stop-color="#f2df91"/><stop offset="1" stop-color="#a47c2d"/></linearGradient>
  </defs>
  <rect width="1080" height="1440" fill="url(#bg)"/>
  <text x="90" y="112" font-family="'PingFang SC', sans-serif" font-size="24" fill="#8f80a5" letter-spacing="5">03 / CATALYSTS</text>
  <text x="90" y="220" font-family="'PingFang SC', sans-serif" font-size="72" font-weight="700" fill="#f1df91">已识别催化</text>
  <rect x="90" y="266" width="150" height="4" rx="2" fill="url(#gold)"/>
  <text x="90" y="325" font-family="'PingFang SC', sans-serif" font-size="27" fill="#a99abb">IPO注册、中报验证、大基金投向——下半年事件窗口密集</text>

  <line x1="250" y1="410" x2="250" y2="1150" stroke="#6f5530" stroke-width="3"/>
  <g font-family="'PingFang SC', sans-serif">
    <circle cx="250" cy="470" r="14" fill="#f2df91"/><circle cx="250" cy="470" r="28" fill="none" stroke="#d8bc63" stroke-opacity="0.35"/>
    <text x="90" y="462" font-size="24" fill="#d8bc63">2026Q3</text>
    <text x="320" y="452" font-size="34" font-weight="600" fill="#f5e8b0">长鑫/长存科创板IPO注册</text>
    <text x="320" y="494" font-size="24" fill="#a99abb">催化：扩产融资落地，板块估值锚事件</text>

    <circle cx="250" cy="640" r="14" fill="#f2df91"/><circle cx="250" cy="640" r="28" fill="none" stroke="#d8bc63" stroke-opacity="0.35"/>
    <text x="90" y="625" font-size="22" fill="#d8bc63">2026.08</text>
    <text x="320" y="622" font-size="34" font-weight="600" fill="#f5e8b0">中报验证订单增速</text>
    <text x="320" y="664" font-size="24" fill="#a99abb">验证：龙头营收增速能否维持30-50%</text>

    <circle cx="250" cy="810" r="14" fill="#f2df91"/><circle cx="250" cy="810" r="28" fill="none" stroke="#d8bc63" stroke-opacity="0.35"/>
    <text x="90" y="795" font-size="22" fill="#d8bc63">2026H2</text>
    <text x="320" y="792" font-size="34" font-weight="600" fill="#f5e8b0">大基金三期具体投向披露</text>
    <text x="320" y="834" font-size="24" fill="#a99abb">催化：设备环节是否如预期约70%</text>

    <circle cx="250" cy="980" r="14" fill="#f2df91"/><circle cx="250" cy="980" r="28" fill="none" stroke="#d8bc63" stroke-opacity="0.35"/>
    <text x="90" y="965" font-size="22" fill="#d8bc63">事件驱动</text>
    <text x="320" y="962" font-size="34" font-weight="600" fill="#f5e8b0">美国对华设备出口管制升级</text>
    <text x="320" y="1004" font-size="24" fill="#a99abb">催化：MATCH法案后进一步动作，强化国产替代逻辑</text>

    <circle cx="250" cy="1130" r="14" fill="#f2df91"/><circle cx="250" cy="1130" r="28" fill="none" stroke="#d8bc63" stroke-opacity="0.35"/>
    <text x="90" y="1115" font-size="22" fill="#d8bc63">每季度</text>
    <text x="320" y="1112" font-size="34" font-weight="600" fill="#f5e8b0">北方华创/中微订单指引更新</text>
    <text x="320" y="1154" font-size="24" fill="#a99abb">验证：新签订单增速趋势是否延续</text>
  </g>

  <rect x="90" y="1240" width="900" height="105" rx="20" fill="#2a1525" stroke="#8e4f58" stroke-opacity="0.9"/>
  <text x="125" y="1282" font-family="'PingFang SC', sans-serif" font-size="20" fill="#d8949d" letter-spacing="3">失效提醒</text>
  <text x="125" y="1322" font-family="'PingFang SC', sans-serif" font-size="23" fill="#c8aeb4">中报增速低于20% · 晶圆厂资本开支下调超30% · ETF规模从高点回撤&gt;30%</text>
  <text x="90" y="1400" font-family="'Times New Roman', serif" font-size="20" font-weight="700" fill="#d8bc63" letter-spacing="4">CIRCE</text>
  <text x="990" y="1400" text-anchor="end" font-family="'PingFang SC', sans-serif" font-size="16" fill="#6f627e">资料整理 · 2026.06</text>
</svg>