<svg xmlns="http://www.w3.org/2000/svg" viewBox="0 0 1080 1440" width="1080" height="1440">
  <defs>
    <linearGradient id="bg" x1="0" y1="0" x2="1" y2="1"><stop offset="0" stop-color="#070611"/><stop offset="0.55" stop-color="#120a25"/><stop offset="1" stop-color="#090713"/></linearGradient>
    <linearGradient id="gold" x1="0" y1="0" x2="1" y2="0"><stop offset="0" stop-color="#a47c2d"/><stop offset="0.5" stop-color="#f2df91"/><stop offset="1" stop-color="#a47c2d"/></linearGradient>
  </defs>
  <rect width="1080" height="1440" fill="url(#bg)"/>
  <text x="90" y="112" font-family="'PingFang SC', sans-serif" font-size="24" fill="#8f80a5" letter-spacing="5">03 / CATALYSTS</text>
  <text x="90" y="220" font-family="'PingFang SC', sans-serif" font-size="72" font-weight="700" fill="#f1df91">已识别催化</text>
  <rect x="90" y="266" width="150" height="4" rx="2" fill="url(#gold)"/>
  <text x="90" y="325" font-family="'PingFang SC', sans-serif" font-size="27" fill="#a99abb">未来2-6个月密集催化窗口，每个节点标注可验证指标</text>

  <line x1="250" y1="400" x2="250" y2="1180" stroke="#6f5530" stroke-width="3"/>
  <g font-family="'PingFang SC', sans-serif">
    <circle cx="250" cy="460" r="14" fill="#f2df91"/><circle cx="250" cy="460" r="28" fill="none" stroke="#d8bc63" stroke-opacity="0.35"/>
    <text x="80" y="452" font-size="22" fill="#d8bc63">7-8月</text>
    <text x="320" y="442" font-size="34" font-weight="600" fill="#f5e8b0">千帆星座324颗一期组网</text>
    <text x="320" y="484" font-size="24" fill="#a99abb">验证：发射节奏是否如期 · 在轨卫星数跨越式增长</text>

    <circle cx="250" cy="630" r="14" fill="#f2df91"/><circle cx="250" cy="630" r="28" fill="none" stroke="#d8bc63" stroke-opacity="0.35"/>
    <text x="80" y="622" font-size="22" fill="#d8bc63">8月</text>
    <text x="320" y="612" font-size="34" font-weight="600" fill="#f5e8b0">中报验证商业航天收入增速</text>
    <text x="320" y="654" font-size="24" fill="#a99abb">验证：铖昌科技收入增速>50%？上海瀚讯亏损收窄？</text>

    <circle cx="250" cy="800" r="14" fill="#f2df91"/><circle cx="250" cy="800" r="28" fill="none" stroke="#d8bc63" stroke-opacity="0.35"/>
    <text x="80" y="792" font-size="22" fill="#d8bc63">H2</text>
    <text x="320" y="782" font-size="34" font-weight="600" fill="#f5e8b0">可回收火箭首飞</text>
    <text x="320" y="824" font-size="24" fill="#a99abb">验证：朱雀三号/天龙三号首飞结果 · 回收成败</text>

    <circle cx="250" cy="970" r="14" fill="#f2df91"/><circle cx="250" cy="970" r="28" fill="none" stroke="#d8bc63" stroke-opacity="0.35"/>
    <text x="80" y="962" font-size="22" fill="#d8bc63">H2-2027</text>
    <text x="320" y="952" font-size="34" font-weight="600" fill="#f5e8b0">蓝箭航天/中科宇航IPO注册</text>
    <text x="320" y="994" font-size="24" fill="#a99abb">验证：上交所注册公告 · A股首个纯正火箭标的估值锚</text>

    <circle cx="250" cy="1140" r="14" fill="#f2df91"/><circle cx="250" cy="1140" r="28" fill="none" stroke="#d8bc63" stroke-opacity="0.35"/>
    <text x="80" y="1125" font-size="22" fill="#d8bc63">Q3-Q4</text>
    <text x="320" y="1122" font-size="34" font-weight="600" fill="#f5e8b0">GW星座发射密度提升</text>
    <text x="320" y="1164" font-size="24" fill="#a99abb">验证：发射次数公告 · 铖昌科技（星网>80%份额）订单</text>
  </g>

  <rect x="90" y="1210" width="900" height="105" rx="20" fill="#2a1525" stroke="#8e4f58" stroke-opacity="0.9"/>
  <text x="125" y="1250" font-family="'PingFang SC', sans-serif" font-size="20" fill="#d8949d" letter-spacing="3">失效提醒</text>
  <text x="125" y="1288" font-family="'PingFang SC', sans-serif" font-size="23" fill="#c8aeb4">可回收火箭连续两次失败 · IPO窗口关闭 · 星座建设大幅推迟</text>
  <text x="90" y="1400" font-family="'Times New Roman', serif" font-size="20" font-weight="700" fill="#d8bc63" letter-spacing="4">CIRCE</text>
  <text x="990" y="1400" text-anchor="end" font-family="'PingFang SC', sans-serif" font-size="16" fill="#6f627e">资料整理 · 2026.06</text>
</svg>