<svg xmlns="http://www.w3.org/2000/svg" viewBox="0 0 1080 1440" width="1080" height="1440">
  <defs>
    <linearGradient id="bg" x1="0" y1="0" x2="1" y2="1"><stop offset="0" stop-color="#070611"/><stop offset="0.55" stop-color="#120a25"/><stop offset="1" stop-color="#090713"/></linearGradient>
    <linearGradient id="flow" x1="0" y1="0" x2="1" y2="0"><stop offset="0" stop-color="#9d7930"/><stop offset="0.5" stop-color="#f2df91"/><stop offset="1" stop-color="#9d7930"/></linearGradient>
    <marker id="arrow" markerWidth="10" markerHeight="10" refX="5" refY="5" orient="auto"><path d="M0,0 L10,5 L0,10 Z" fill="#c9a84c"/></marker>
  </defs>
  <rect width="1080" height="1440" fill="url(#bg)"/>
  <text x="90" y="112" font-family="'PingFang SC', sans-serif" font-size="24" fill="#8f80a5" letter-spacing="5">02 / SUPPLY TO PROFIT</text>
  <text x="90" y="220" font-family="'PingFang SC', sans-serif" font-size="68" font-weight="700" fill="#f1df91">产业供需与盈利传导</text>
  <rect x="90" y="266" width="150" height="4" rx="2" fill="url(#flow)"/>
  <text x="90" y="325" font-family="'PingFang SC', sans-serif" font-size="27" fill="#a99abb">从晶圆厂扩产到A股利润的传导路径与瓶颈</text>

  <g font-family="'PingFang SC', sans-serif" text-anchor="middle">
    <rect x="170" y="390" width="740" height="105" rx="28" fill="#1a112c" stroke="#8e7137"/>
    <text x="540" y="428" font-size="22" fill="#d8bc63" letter-spacing="3">需求驱动</text>
    <text x="540" y="468" font-size="28" font-weight="600" fill="#f5e8b0">三大晶圆厂同步大规模扩产 · 年设备采购超百亿美元</text>
    <line x1="540" y1="510" x2="540" y2="560" stroke="#c9a84c" stroke-width="3" marker-end="url(#arrow)"/>

    <rect x="170" y="575" width="740" height="105" rx="28" fill="#1a112c" stroke="#8e7137"/>
    <text x="540" y="613" font-size="22" fill="#d8bc63" letter-spacing="3">国产替代加速</text>
    <text x="540" y="653" font-size="28" font-weight="600" fill="#f5e8b0">国产化率25%→35%→45%+ · 存储厂首选国产设备</text>
    <line x1="540" y1="695" x2="540" y2="745" stroke="#c9a84c" stroke-width="3" marker-end="url(#arrow)"/>

    <rect x="170" y="760" width="740" height="105" rx="28" fill="#1a112c" stroke="#8e7137"/>
    <text x="540" y="798" font-size="22" fill="#d8bc63" letter-spacing="3">设备订单放量</text>
    <text x="540" y="838" font-size="28" font-weight="600" fill="#f5e8b0">龙头在手订单排产至2027 · 4家龙头合计营收~429亿</text>
    <line x1="540" y1="880" x2="540" y2="930" stroke="#c9a84c" stroke-width="3" marker-end="url(#arrow)"/>

    <rect x="170" y="945" width="740" height="105" rx="28" fill="#1a112c" stroke="#8e7137"/>
    <text x="540" y="983" font-size="22" fill="#d8bc63" letter-spacing="3">盈利传导</text>
    <text x="540" y="1023" font-size="28" font-weight="600" fill="#f5e8b0">规模效应渐现 · 龙头ROE 10-16% · 2026H2利润弹性可期</text>
    <line x1="540" y1="1065" x2="540" y2="1115" stroke="#c9a84c" stroke-width="3" marker-end="url(#arrow)"/>

    <rect x="170" y="1130" width="740" height="80" rx="28" fill="#8e4f58" fill-opacity="0.15" stroke="#8e4f58"/>
    <text x="540" y="1160" font-size="22" fill="#d8949d" letter-spacing="3">瓶颈 · 先进制程缺失</text>
    <text x="540" y="1185" font-size="26" font-weight="600" fill="#d8949d">量检测~10% · 光刻&lt;1% · 涂胶显影&lt;25%</text>
  </g>

  <text x="90" y="1280" font-family="'PingFang SC', sans-serif" font-size="22" fill="#d8bc63" letter-spacing="3">验证指标</text>
  <g font-family="'PingFang SC', sans-serif" font-size="23">
    <rect x="90" y="1305" width="285" height="52" rx="14" fill="#1a112c" stroke="#6f6260"/><text x="232" y="1336" text-anchor="middle" fill="#c6b9d4">中报营收增速>30%</text>
    <rect x="398" y="1305" width="285" height="52" rx="14" fill="#1a112c" stroke="#6f6260"/><text x="540" y="1336" text-anchor="middle" fill="#c6b9d4">在手订单增速>20%</text>
    <rect x="705" y="1305" width="285" height="52" rx="14" fill="#2a1525" stroke="#8e4f58"/><text x="847" y="1336" text-anchor="middle" fill="#d8949d">失效：增速&lt;20%</text>
  </g>
  <text x="90" y="1400" font-family="'Times New Roman', serif" font-size="20" font-weight="700" fill="#d8bc63" letter-spacing="4">CIRCE</text>
  <text x="990" y="1400" text-anchor="end" font-family="'PingFang SC', sans-serif" font-size="16" fill="#6f627e">资料整理 · 2026.06</text>
</svg>