<svg xmlns="http://www.w3.org/2000/svg" viewBox="0 0 1080 1440" width="1080" height="1440">
  <defs>
    <linearGradient id="bg" x1="0" y1="0" x2="0.4" y2="1">
      <stop offset="0%" stop-color="#06060f"/>
      <stop offset="40%" stop-color="#0e0820"/>
      <stop offset="75%" stop-color="#160a30"/>
      <stop offset="100%" stop-color="#0a0815"/>
    </linearGradient>
    <linearGradient id="gold" x1="0" y1="0" x2="1" y2="0">
      <stop offset="0%" stop-color="#b8943e"/>
      <stop offset="30%" stop-color="#e8d48b"/>
      <stop offset="50%" stop-color="#f5e8b0"/>
      <stop offset="70%" stop-color="#e8d48b"/>
      <stop offset="100%" stop-color="#b8943e"/>
    </linearGradient>
    <linearGradient id="goldSub" x1="0" y1="0" x2="1" y2="0">
      <stop offset="0%" stop-color="#8a7a5a"/>
      <stop offset="50%" stop-color="#c9b878"/>
      <stop offset="100%" stop-color="#8a7a5a"/>
    </linearGradient>
    <linearGradient id="glow" x1="0.5" y1="0" x2="0.5" y2="1">
      <stop offset="0%" stop-color="#c9a84c" stop-opacity="0.08"/>
      <stop offset="100%" stop-color="#c9a84c" stop-opacity="0"/>
    </linearGradient>
  </defs>
  <rect width="1080" height="1440" fill="url(#bg)"/>
  <ellipse cx="540" cy="250" rx="450" ry="350" fill="url(#glow)"/>
  <circle cx="940" cy="100" r="200" fill="none" stroke="#c9a84c" stroke-opacity="0.04" stroke-width="1"/>
  <circle cx="940" cy="100" r="280" fill="none" stroke="#c9a84c" stroke-opacity="0.025" stroke-width="0.5"/>
  <circle cx="140" cy="1340" r="140" fill="none" stroke="#c9a84c" stroke-opacity="0.03" stroke-width="1"/>
  <g stroke="#c9a84c" stroke-opacity="0.06" stroke-width="0.8" fill="none">
    <line x1="100" y1="60" x2="980" y2="1380"/>
    <line x1="200" y1="40" x2="880" y2="1400"/>
    <line x1="50" y1="350" x2="1030" y2="1100"/>
  </g>
  <g fill="#c9a84c" fill-opacity="0.1">
    <circle cx="280" cy="320" r="3.5"/>
    <circle cx="420" cy="480" r="3"/>
    <circle cx="680" cy="800" r="2.5"/>
    <circle cx="350" cy="720" r="3"/>
  </g>
  <rect x="440" y="280" width="200" height="2.5" fill="url(#gold)" rx="1"/>
  <text x="540" y="420" text-anchor="middle" font-family="'PingFang SC','Noto Sans SC','Heiti SC',sans-serif" font-size="110" font-weight="700" fill="#e8d48b" letter-spacing="6">折叠屏铰链</text>
  <rect x="490" y="490" width="100" height="2" fill="url(#gold)" rx="1"/>
  <text x="540" y="620" text-anchor="middle" font-family="'PingFang SC','Noto Sans SC','Heiti SC',sans-serif" font-size="56" font-weight="300" fill="#c9b878" letter-spacing="4">苹果入局 全球出货跃升</text>
  <rect x="490" y="710" width="100" height="2" fill="url(#gold)" rx="1"/>
  <text x="540" y="850" text-anchor="middle" font-family="'PingFang SC','Noto Sans SC','Heiti SC',sans-serif" font-size="38" font-weight="300" fill="#a091b5" letter-spacing="2">全球折叠屏出货：~2000万 → ~3500万</text>
  <text x="540" y="920" text-anchor="middle" font-family="'PingFang SC','Noto Sans SC','Heiti SC',sans-serif" font-size="36" font-weight="300" fill="#a091b5" letter-spacing="2">铰链BOM占比5-8% · 苹果首年1300-1500万</text>
  <text x="540" y="990" text-anchor="middle" font-family="'PingFang SC','Noto Sans SC','Heiti SC',sans-serif" font-size="36" font-weight="300" fill="#a091b5" letter-spacing="2">渗透率从1.6%向5%+ · 方向已从概念走向量产</text>
</svg>